<?xml version="1.0" encoding="UTF-8" standalone="no"?>
<svg id="Layer_1" enable-background="new 0 0 508.544 508.544" height="15px" viewBox="0 0 508.544 508.544" width="15px" xmlns="http://www.w3.org/2000/svg">
    <path d="m434.029 74.515c-99.345-99.345-260.154-99.36-359.514 0-99.347 99.347-99.36 260.154 0 359.514 99.345 99.345 260.154 99.36 359.514 0 99.347-99.347 99.359-260.154 0-359.514zm-23.321 336.192c-86.459 86.458-226.403 86.468-312.872 0-86.458-86.458-86.468-226.403 0-312.871 86.459-86.458 226.403-86.468 312.872 0 37.875 37.875 60.326 87.063 64.196 139.945h-220.632c-9.107 0-16.491 7.383-16.491 16.49s7.383 16.49 16.491 16.49h220.632c-3.87 52.883-26.322 102.072-64.196 139.946z"/>
</svg>